<svg width="69" height="65" viewBox="0 0 69 65" fill="none" xmlns="http://www.w3.org/2000/svg">
<path d="M8.32538 30.1007C8.4105 30.0733 8.47433 30.0414 8.51841 30.0034C8.56249 29.9654 8.59593 29.9274 8.61569 29.8894C8.63697 29.8514 8.66282 29.8347 8.69626 29.8408C8.75098 29.8499 8.77225 29.8818 8.76313 29.935L8.71297 30.2284L8.57465 31.0385L8.5245 31.3319C8.5169 31.379 8.49105 31.4033 8.45001 31.4018L8.43026 31.3988C8.42418 31.3973 8.41809 31.3927 8.41201 31.3851C8.40593 31.3836 8.39681 31.376 8.38465 31.3593C8.37401 31.3441 8.36793 31.3289 8.36641 31.3152C8.36489 31.3015 8.36033 31.2833 8.34969 31.2605C8.33905 31.2377 8.32841 31.2133 8.31473 31.1875C8.30257 31.1617 8.28433 31.1358 8.26001 31.11C8.25393 31.1024 8.24937 31.0978 8.24633 31.0978C8.24329 31.0978 8.23873 31.0933 8.23265 31.0857C8.21593 31.0613 8.17337 31.0309 8.10345 30.9899C8.08369 30.9869 8.07001 30.9808 8.06545 30.9732L8.02441 30.9656C8.01225 30.9565 7.99553 30.9504 7.97577 30.9473C7.96209 30.9443 7.94689 30.9413 7.93169 30.9352C7.91497 30.9291 7.89673 30.9245 7.87697 30.92L7.81617 30.9093L3.60729 30.1889L2.08882 29.9289C1.92618 29.9016 1.80305 29.9016 1.71945 29.9289C1.63433 29.9563 1.57201 29.9882 1.53097 30.0262C1.48993 30.0642 1.45801 30.1022 1.43369 30.1402C1.40937 30.1782 1.38202 30.1934 1.34706 30.1873C1.31362 30.1813 1.29385 30.1509 1.28929 30.0946C1.29689 30.0536 1.29841 30.0065 1.29385 29.9487C1.28777 29.8985 1.28322 29.8423 1.27562 29.7785C1.26954 29.7146 1.25585 29.6432 1.23457 29.5626C1.20113 29.4319 1.16921 29.3331 1.14033 29.2647C1.10993 29.1978 1.0841 29.1461 1.06282 29.1112C1.04154 29.0762 1.02481 29.0519 1.01265 29.0397C1.00049 29.0276 0.997452 29.0078 1.00201 28.9805C1.00657 28.9531 1.02178 28.9364 1.04762 28.9303C1.07346 28.9242 1.13273 28.9288 1.22697 28.9455L1.43977 28.982L3.74713 29.3772L4.71841 29.5429L7.37994 29.9989L7.95601 30.0977C8.11713 30.1281 8.24026 30.1281 8.32538 30.1007Z" fill="#4A4545" stroke="#808080" stroke-width="0.5" stroke-miterlimit="10"/>
<path d="M10.0247 24.331C10.1114 24.3218 10.1813 24.3006 10.2315 24.2671C10.2831 24.2352 10.3211 24.2018 10.347 24.1714C10.3728 24.141 10.4017 24.1303 10.4336 24.1425C10.4853 24.1607 10.502 24.1957 10.4838 24.2474C10.3971 24.4936 10.2983 24.6745 10.1859 24.79C10.0734 24.907 9.94569 24.98 9.80433 25.0104C9.66297 25.0408 9.50945 25.0378 9.34529 25.0013C9.17961 24.9648 9.00481 24.9146 8.81633 24.8493L8.90753 24.8706C8.84977 24.8508 8.72969 24.8204 8.54729 24.7824C8.36489 24.7444 8.16881 24.7337 7.96057 24.752C7.75081 24.7702 7.54713 24.8371 7.34649 24.9526C7.14585 25.0682 6.99689 25.2688 6.89657 25.5546C6.84185 25.7096 6.81145 25.8631 6.80689 26.0151C6.80081 26.1656 6.82969 26.3115 6.89353 26.4498C6.95737 26.5882 7.06529 26.7174 7.21577 26.8359C7.36625 26.9545 7.56841 27.0578 7.81921 27.146C8.07761 27.2357 8.30105 27.2813 8.48953 27.2828C8.67801 27.2828 8.84218 27.2509 8.98049 27.1825C9.12034 27.1156 9.23281 27.0214 9.31945 26.8982C9.40609 26.7766 9.47601 26.6383 9.53073 26.4833C9.61281 26.2507 9.62498 26.0531 9.57026 25.8874C9.51554 25.7233 9.43193 25.5834 9.31945 25.4679C9.20697 25.3524 9.08841 25.2642 8.96073 25.2019C8.83457 25.1396 8.73881 25.097 8.67345 25.0742C8.50625 25.015 8.37249 24.9906 8.27521 24.9998C8.17793 25.0089 8.10041 25.0362 8.04569 25.0818C7.98945 25.1274 7.94993 25.1867 7.92409 25.2566C7.89977 25.3281 7.87849 25.3934 7.86177 25.4527C7.84505 25.512 7.82377 25.5591 7.80097 25.5941C7.77817 25.629 7.73714 25.6366 7.67938 25.6169C7.57602 25.5804 7.50913 25.5196 7.47721 25.4314C7.44681 25.3448 7.48785 25.2521 7.60185 25.1533C7.71433 25.0621 7.86481 24.9861 8.05633 24.9268C8.24785 24.8675 8.46977 24.8812 8.72209 24.9694C8.79353 24.9937 8.90145 25.0393 9.04433 25.1046C9.18873 25.17 9.32401 25.2627 9.45321 25.3828C9.58089 25.5044 9.67665 25.6579 9.73745 25.8464C9.79825 26.0349 9.78153 26.2644 9.68729 26.535C9.53985 26.9545 9.37113 27.2706 9.18113 27.4834C8.99113 27.6962 8.79657 27.8422 8.59897 27.9212C8.40137 28.0002 8.20833 28.0306 8.02289 28.0139C7.83745 27.9957 7.67937 27.9638 7.55017 27.9197C7.42097 27.8741 7.27961 27.8011 7.12609 27.7008C6.97257 27.6005 6.84337 27.4561 6.73849 27.2706C6.63361 27.0852 6.57129 26.8481 6.55153 26.5623C6.53177 26.2766 6.59561 25.9209 6.74305 25.4998C6.84033 25.2217 6.96953 25.018 7.13065 24.8888C7.29177 24.7596 7.44985 24.6745 7.60489 24.635C7.75993 24.5954 7.89521 24.5818 8.00921 24.597C8.12321 24.6122 8.18401 24.6198 8.19009 24.6228C7.77057 24.4754 7.43009 24.372 7.16865 24.3097C6.90721 24.2474 6.69593 24.2306 6.53329 24.261C6.37065 24.2914 6.24298 24.3659 6.15026 24.486C6.05754 24.6061 5.97089 24.7718 5.89033 24.9815C5.74593 25.395 5.65625 25.7096 5.61977 25.9254C5.58481 26.1413 5.58177 26.2918 5.61521 26.3754C5.64713 26.459 5.70337 26.497 5.78241 26.4878C5.86145 26.4787 5.94353 26.4605 6.03017 26.4331C6.11529 26.4058 6.19433 26.386 6.26273 26.3738C6.33265 26.3617 6.37521 26.3951 6.39041 26.4726C6.40409 26.5578 6.39041 26.6474 6.35089 26.7417C6.31137 26.8359 6.25209 26.918 6.17305 26.9849C6.09553 27.0518 6.00433 27.0943 5.89945 27.1126C5.79457 27.1308 5.69121 27.1034 5.58633 27.0305C5.47537 26.956 5.41305 26.8253 5.40241 26.6398C5.39177 26.4544 5.40545 26.2553 5.44345 26.0394C5.48297 25.8251 5.53313 25.6154 5.59697 25.4132C5.66081 25.211 5.71249 25.0514 5.75353 24.9344C5.89641 24.527 6.05601 24.2215 6.23233 24.0163C6.40865 23.8111 6.60625 23.6774 6.82513 23.6135C7.04249 23.5497 7.27961 23.5421 7.53497 23.5877C7.79033 23.6348 8.06697 23.7093 8.36489 23.8126L9.66297 24.2671C9.81801 24.3188 9.93809 24.3416 10.0247 24.331Z" fill="#4A4545" stroke="#808080" stroke-width="0.5" stroke-miterlimit="10"/>
<path d="M8.69321 20.6492C8.80113 20.6811 8.93337 20.6568 9.08993 20.5747C9.24649 20.4926 9.41825 20.3877 9.60521 20.26C9.79217 20.1324 9.98977 19.9971 10.198 19.8542C10.4063 19.7113 10.6175 19.5882 10.8303 19.4833C11.0431 19.38 11.2529 19.3146 11.4596 19.2903C11.6648 19.266 11.8624 19.3085 12.0509 19.421C12.3215 19.5821 12.4613 19.8284 12.4719 20.1612C12.4811 20.4941 12.3534 20.8832 12.0874 21.3301C11.87 21.6949 11.6633 21.9624 11.4672 22.1327C11.2711 22.3029 11.0887 22.4108 10.9215 22.4595C10.7543 22.5066 10.6023 22.5127 10.4686 22.4777C10.3348 22.4412 10.2239 22.3972 10.1357 22.3455C9.98217 22.2543 9.87729 22.1357 9.82105 21.9913C9.76329 21.8454 9.81041 21.7025 9.95785 21.5596C10.0369 21.4791 10.1144 21.4639 10.1889 21.5125C10.2634 21.5612 10.3424 21.6326 10.426 21.7253C10.5096 21.8196 10.5993 21.9092 10.6935 21.9974C10.7878 22.0856 10.8972 22.1327 11.0219 22.1388C11.145 22.1448 11.2848 22.0856 11.4368 21.9624C11.5903 21.8393 11.7682 21.6068 11.9703 21.2648C12.1071 21.0352 12.1755 20.8118 12.1786 20.5944C12.1801 20.3771 12.0874 20.2114 11.8989 20.1004C11.7347 20.0032 11.566 19.9697 11.3943 20.0032C11.2225 20.0366 11.0477 20.1035 10.8683 20.2038C10.689 20.3041 10.5081 20.4242 10.3272 20.5625C10.1448 20.7008 9.96241 20.8285 9.77697 20.9456C9.59153 21.0626 9.40913 21.1523 9.22825 21.2161C9.04737 21.28 8.86801 21.286 8.69017 21.2374C8.56705 21.204 8.45305 21.1325 8.35121 21.0246C8.24937 20.9152 8.17337 20.7799 8.12321 20.6142C8.07457 20.45 8.06393 20.2631 8.09281 20.0533C8.12169 19.8436 8.20833 19.6186 8.35121 19.3769C8.52297 19.0881 8.69017 18.8677 8.85281 18.7142C9.01545 18.5607 9.16897 18.4543 9.31033 18.395C9.45169 18.3357 9.58697 18.3175 9.71465 18.3372C9.84233 18.357 9.95329 18.395 10.0475 18.4512C10.2011 18.5424 10.2923 18.6549 10.3242 18.7887C10.3561 18.9224 10.3196 19.079 10.2147 19.2553C10.1342 19.3906 10.0643 19.4423 10.0035 19.4104C9.94265 19.3784 9.87881 19.3146 9.81193 19.2188C9.74505 19.1231 9.67513 19.0182 9.60065 18.9027C9.52617 18.7872 9.43649 18.7142 9.33161 18.6823C9.22673 18.6519 9.10361 18.6884 8.96225 18.7917C8.82089 18.8951 8.65217 19.1109 8.45761 19.4408C8.37401 19.5821 8.32081 19.7174 8.29953 19.8481C8.27825 19.9788 8.27825 20.0989 8.30105 20.2068C8.32385 20.3163 8.36945 20.4105 8.43633 20.4911C8.50625 20.5671 8.59137 20.6203 8.69321 20.6492Z" fill="#4A4545" stroke="#808080" stroke-width="0.5" stroke-miterlimit="10"/>
<path d="M16.2719 14.8749C16.392 14.9858 16.4954 15.0542 16.582 15.077C16.6671 15.0998 16.7386 15.1074 16.7933 15.0983C16.848 15.0892 16.8967 15.0755 16.9362 15.0558C16.9772 15.0375 17.0091 15.039 17.035 15.0634C17.0699 15.0953 17.0699 15.1318 17.0319 15.1728L16.8298 15.3917L16.2659 16.0027L16.0713 16.214C16.0303 16.2596 15.9907 16.2657 15.9558 16.2338C15.9299 16.211 15.9254 16.1775 15.9406 16.1365C15.9558 16.0954 15.9664 16.0453 15.971 15.9906C15.9755 15.9343 15.9634 15.8644 15.933 15.7808C15.9026 15.6972 15.8281 15.5999 15.7065 15.489L14.6957 14.5557C14.4297 14.3094 14.1865 14.121 13.9676 13.9887C13.7487 13.8565 13.5496 13.7759 13.3687 13.744C13.1879 13.7121 13.0222 13.7288 12.8687 13.7926C12.7167 13.8565 12.5723 13.9614 12.4385 14.1073C12.2713 14.2882 12.1755 14.4797 12.1527 14.6818C12.1299 14.884 12.1406 15.0755 12.1862 15.2579C12.2318 15.4403 12.2971 15.5999 12.3792 15.7367C12.4628 15.8735 12.5297 15.9662 12.5799 16.0118L13.5603 16.9162L13.9904 17.313C14.1105 17.4239 14.2139 17.4923 14.3005 17.5151C14.3856 17.5379 14.4586 17.547 14.5163 17.5394C14.5741 17.5318 14.6227 17.5182 14.6592 17.4969C14.6972 17.4756 14.7291 17.4771 14.7535 17.4999C14.7945 17.5364 14.793 17.579 14.7504 17.623L14.5559 17.8343L13.9995 18.4378L13.7974 18.6566C13.7655 18.6916 13.7305 18.6977 13.6971 18.6749L13.6819 18.6612L13.6667 18.6475C13.6651 18.6278 13.6636 18.6156 13.6575 18.611C13.6575 18.5913 13.6606 18.5746 13.6697 18.5594C13.6788 18.5442 13.6849 18.5244 13.6895 18.5001C13.694 18.4758 13.6971 18.4484 13.7001 18.4195C13.7031 18.3906 13.7031 18.3587 13.6971 18.3253C13.6971 18.3162 13.6955 18.3101 13.6925 18.307C13.6895 18.304 13.6879 18.2994 13.6879 18.2888C13.6864 18.269 13.6819 18.2478 13.6712 18.2234C13.6606 18.1991 13.6454 18.1733 13.6241 18.1459C13.618 18.1322 13.6104 18.1201 13.6013 18.111C13.5952 18.0973 13.5876 18.0851 13.5785 18.076C13.5679 18.0669 13.5633 18.0593 13.5633 18.0547C13.5633 18.0502 13.5587 18.0426 13.5481 18.0334C13.5177 18.0061 13.4949 17.9802 13.4797 17.9559L13.4341 17.9149L10.2953 15.0193L9.1629 13.975C9.04282 13.8641 8.93946 13.7957 8.85282 13.7729C8.7677 13.7501 8.69626 13.7425 8.64154 13.7516C8.58682 13.7607 8.53818 13.7759 8.49866 13.7942C8.45762 13.8124 8.4257 13.8109 8.39986 13.7866C8.37402 13.7638 8.37554 13.7273 8.4029 13.6771C8.43026 13.6467 8.45762 13.6072 8.48498 13.557C8.50778 13.513 8.53362 13.4613 8.5625 13.405C8.59138 13.3488 8.61873 13.2804 8.64457 13.2014C8.68865 13.0737 8.71602 12.9734 8.72666 12.9004C8.73882 12.8274 8.7449 12.7697 8.7449 12.7286C8.74642 12.6876 8.7449 12.6587 8.74186 12.642C8.73882 12.6253 8.74642 12.607 8.76466 12.5873C8.7829 12.5675 8.80417 12.5614 8.83001 12.5706C8.85433 12.5797 8.90146 12.6162 8.9729 12.6815L9.13098 12.8274L10.8516 14.4143L11.5767 15.0831L12.1725 15.6334C12.0783 15.4631 12.019 15.2853 11.9916 15.1029C11.9658 14.9494 11.9719 14.7746 12.0083 14.5785C12.0448 14.3824 12.1512 14.1894 12.3275 13.9978C12.6118 13.6908 12.8975 13.4886 13.1848 13.3944C13.4721 13.3002 13.7457 13.2713 14.0041 13.3093C14.2625 13.3473 14.4996 13.4309 14.7155 13.5601C14.9313 13.6893 15.1107 13.8185 15.2505 13.9492C15.4314 14.1073 15.6062 14.2623 15.7749 14.4189C15.9467 14.5739 16.1108 14.7259 16.2719 14.8749Z" fill="#4A4545" stroke="#808080" stroke-width="0.5" stroke-miterlimit="10"/>
<path d="M22.1087 6.88271C22.4857 6.70335 22.8247 6.62432 23.1256 6.64408C23.4266 6.66384 23.6895 6.73984 23.916 6.87208C24.141 7.00432 24.3295 7.17 24.4815 7.37064C24.6335 7.57128 24.7505 7.75824 24.8326 7.93152C24.9147 8.1048 24.9846 8.31304 25.0439 8.55776C25.1031 8.80248 25.1123 9.05327 25.0712 9.31167C25.0302 9.57007 24.9223 9.8224 24.7459 10.0686C24.5696 10.3149 24.293 10.5277 23.9145 10.707C23.6789 10.8195 23.4631 10.8651 23.267 10.8438C23.0709 10.8226 22.9037 10.7785 22.7639 10.707C22.5967 10.628 22.4447 10.514 22.3063 10.3681L22.6544 11.1007L23.3323 12.5295L23.5223 12.9278L23.7382 13.3822C23.8081 13.5312 23.878 13.633 23.9449 13.6878C24.0118 13.7425 24.0756 13.7759 24.1334 13.785C24.1911 13.7957 24.2413 13.8002 24.2823 13.8002C24.3234 13.8002 24.3523 13.8139 24.3659 13.8458C24.3857 13.8884 24.372 13.9218 24.3219 13.9462L24.0619 14.0693L23.3202 14.4219L23.0603 14.545C23.0101 14.5678 22.9767 14.5618 22.9599 14.5253L22.9554 14.5162L22.9417 14.4888L22.9508 14.4614C22.9569 14.4432 22.966 14.4265 22.9797 14.4143C22.9919 14.4006 23.001 14.3854 23.0086 14.3672C23.0496 14.3246 23.077 14.2699 23.0907 14.203C23.0876 14.197 23.0876 14.1924 23.0907 14.1909C23.0937 14.1894 23.0937 14.1848 23.0907 14.1787C23.1013 14.1362 23.0998 14.0799 23.0891 14.0085C23.0861 14.0024 23.0861 13.9963 23.0876 13.9918C23.0891 13.9872 23.0876 13.9781 23.0815 13.9659C23.0785 13.9598 23.0785 13.9538 23.08 13.9492C23.0815 13.9446 23.08 13.9355 23.0739 13.9234C23.0648 13.9051 23.0618 13.8914 23.0663 13.8823L23.0223 13.7896L23.0177 13.7805L22.9964 13.7334L22.5921 12.8806L20.5051 8.48479C20.4352 8.33583 20.3653 8.23551 20.2984 8.17927C20.23 8.12455 20.1677 8.08959 20.1084 8.07591C20.0491 8.06223 19.999 8.05767 19.9595 8.06071C19.9199 8.06527 19.8926 8.05159 19.8774 8.01967C19.8652 7.99535 19.8607 7.97559 19.8607 7.95887C19.8728 7.95279 19.8804 7.9452 19.8835 7.93608C19.8895 7.93304 19.8941 7.92999 19.8956 7.92543C19.8971 7.92087 19.9047 7.91631 19.9169 7.91023C19.9473 7.89503 19.9762 7.88287 20.0005 7.87071C20.0248 7.85855 20.0537 7.84944 20.0887 7.84032C20.1191 7.82512 20.1464 7.81447 20.1692 7.80687C20.192 7.79927 20.2179 7.7932 20.2452 7.78864C20.3121 7.77192 20.3592 7.76128 20.3866 7.7552C20.4079 7.75216 20.4291 7.75063 20.4504 7.74759C20.4717 7.74455 20.493 7.74303 20.5143 7.73999C20.5447 7.74151 20.5842 7.74455 20.6328 7.75215C20.6632 7.75367 20.7012 7.76127 20.7468 7.77799C20.7711 7.78255 20.8046 7.79624 20.8456 7.82208C20.8699 7.82512 20.9034 7.84031 20.9444 7.86615C20.9566 7.87527 20.9703 7.88895 20.9839 7.90415C20.9991 7.91935 21.0128 7.93303 21.025 7.94215C21.0463 7.95431 21.0736 7.98319 21.1101 8.02727C21.1724 8.09567 21.2211 8.15951 21.2575 8.21879C21.2849 8.25983 21.3077 8.29783 21.329 8.33279C21.3503 8.36775 21.3715 8.41031 21.3959 8.46047C21.4171 8.48935 21.4354 8.51976 21.4506 8.5532C21.4673 8.58664 21.484 8.62311 21.5007 8.65959L22.0723 9.86496C22.1011 9.92728 22.1695 10.017 22.2759 10.137C22.3823 10.2571 22.5146 10.3666 22.6711 10.4669C22.8292 10.5672 23.0086 10.6341 23.2123 10.6706C23.4159 10.707 23.6287 10.6721 23.8522 10.5657C24.0315 10.4806 24.1744 10.3757 24.2778 10.2495C24.3827 10.1249 24.4465 9.97136 24.4708 9.78896C24.4951 9.60656 24.4769 9.39223 24.4161 9.14447C24.3553 8.89671 24.2474 8.60943 24.0923 8.28111C23.9373 7.95279 23.7823 7.68832 23.6287 7.48464C23.4752 7.28096 23.3202 7.13047 23.1651 7.03471C23.0101 6.93743 22.8505 6.89031 22.6879 6.89183C22.5252 6.89335 22.355 6.93591 22.1756 7.02103C21.9719 7.11831 21.8291 7.24448 21.747 7.39952C21.6664 7.55608 21.6193 7.71567 21.6056 7.88135C21.5919 8.04703 21.6026 8.19903 21.6345 8.33887C21.6664 8.47871 21.6983 8.58055 21.7272 8.64135C21.8032 8.80247 21.8792 8.91343 21.9552 8.97727C22.0312 9.03959 22.1042 9.07607 22.1756 9.08215C22.2471 9.08975 22.317 9.07759 22.3854 9.04567C22.4538 9.01375 22.5146 8.98184 22.5693 8.95296C22.624 8.92408 22.6727 8.90583 22.7152 8.90127C22.7578 8.89671 22.7912 8.91799 22.8155 8.96815C22.8627 9.06695 22.8642 9.15967 22.8216 9.24327C22.7791 9.32839 22.6848 9.36335 22.5419 9.34815C22.3991 9.33295 22.2379 9.27975 22.0631 9.18855C21.8868 9.09735 21.7424 8.93167 21.6284 8.68999C21.5965 8.62159 21.5585 8.51063 21.5159 8.35711C21.4734 8.20359 21.4551 8.03487 21.4643 7.85399C21.4719 7.67159 21.522 7.49375 21.6132 7.31743C21.7014 7.14263 21.8671 6.99823 22.1087 6.88271Z" fill="#4A4545" stroke="#808080" stroke-width="0.5" stroke-miterlimit="10"/>
<path d="M28.1143 4.80943C28.4411 4.73343 28.7375 4.73191 29.005 4.80639C29.2725 4.88087 29.502 5.00095 29.6951 5.16663C29.8881 5.33231 30.0492 5.52839 30.1754 5.75487C30.3031 5.98135 30.3927 6.20783 30.4459 6.43431C30.5007 6.66839 30.5219 6.91462 30.5083 7.17302C30.4946 7.43295 30.4383 7.67918 30.3395 7.91326C30.2392 8.14734 30.0872 8.35711 29.8805 8.54255C29.6738 8.72799 29.4078 8.8587 29.081 8.9347C28.7481 9.01222 28.4487 9.01374 28.1857 8.93926C27.9212 8.86326 27.6932 8.74319 27.5002 8.57751C27.3071 8.41183 27.146 8.21574 27.0199 7.98926C26.8937 7.76278 26.8025 7.53327 26.7478 7.29919C26.6946 7.07271 26.6748 6.8295 26.687 6.56958C26.7007 6.30966 26.7569 6.06343 26.8557 5.82935C26.956 5.59527 27.1065 5.3855 27.3102 5.20158C27.5123 5.01918 27.7814 4.88695 28.1143 4.80943ZM29.046 8.78726C29.1919 8.7523 29.3211 8.68695 29.4321 8.59119C29.5431 8.49543 29.6282 8.35863 29.689 8.18231C29.7498 8.00599 29.7787 7.79015 29.7741 7.53479C29.7711 7.27943 29.727 6.97542 29.6449 6.62126C29.5643 6.2747 29.4686 5.98591 29.3576 5.75487C29.2467 5.52383 29.1266 5.34295 28.9928 5.21223C28.8606 5.08151 28.7223 4.99791 28.5809 4.96143C28.438 4.92495 28.2936 4.92343 28.1477 4.95687C28.0018 4.99183 27.8726 5.05719 27.7616 5.15295C27.6507 5.24871 27.564 5.3855 27.5047 5.56182C27.4439 5.73814 27.4151 5.95399 27.4196 6.20935C27.4227 6.46471 27.4652 6.76567 27.5473 7.11223C27.6294 7.46487 27.7267 7.75671 27.8376 7.98775C27.9486 8.21879 28.0687 8.39967 28.2024 8.53039C28.3347 8.66111 28.473 8.74471 28.6143 8.78119C28.7557 8.82071 28.9001 8.82222 29.046 8.78726Z" fill="#4A4545" stroke="#808080" stroke-width="0.5" stroke-miterlimit="10"/>
<path d="M32.5162 2.18899C32.3505 2.20115 32.2061 2.15403 32.0799 2.04763C31.9538 1.94123 31.8854 1.80595 31.8717 1.64179C31.8595 1.47763 31.9067 1.33323 32.0146 1.20859C32.1225 1.08395 32.2593 1.01403 32.425 1.00187C32.5907 0.989711 32.7351 1.03683 32.8612 1.14323C32.9874 1.24963 33.0573 1.38491 33.0695 1.54907C33.0816 1.71323 33.0345 1.85763 32.9266 1.98227C32.8171 2.10691 32.6803 2.17531 32.5162 2.18899ZM33.527 7.49531C33.5391 7.65947 33.5695 7.77803 33.6167 7.85403C33.6638 7.93003 33.7109 7.98475 33.758 8.01819C33.8051 8.05163 33.8492 8.07443 33.8918 8.08507C33.9343 8.09571 33.9556 8.11851 33.9587 8.15195C33.9632 8.20667 33.9374 8.23555 33.8827 8.24011L33.5863 8.26291L32.767 8.32675L32.4706 8.34955C32.4235 8.35259 32.3946 8.33435 32.3839 8.29483L32.3824 8.27507C32.3824 8.26899 32.3855 8.26139 32.3915 8.25379C32.3915 8.24771 32.3976 8.23555 32.4098 8.22187C32.4219 8.20667 32.4356 8.19755 32.4493 8.19299C32.463 8.18843 32.4797 8.17931 32.4979 8.16411C32.5177 8.14891 32.539 8.13219 32.5618 8.11243C32.5846 8.09419 32.6043 8.06987 32.6226 8.04099C32.6287 8.03339 32.6317 8.02883 32.6317 8.02427C32.6317 8.02123 32.6347 8.01515 32.6408 8.00755C32.6591 7.98475 32.6803 7.93611 32.7016 7.85859C32.7001 7.83883 32.7016 7.82363 32.7092 7.81755L32.7062 7.77651C32.7123 7.76283 32.7138 7.74459 32.7123 7.72483C32.7107 7.71115 32.7123 7.69595 32.7138 7.67771C32.7153 7.66099 32.7168 7.64123 32.7138 7.62147L32.7092 7.56067L32.5846 5.94339L32.5101 4.98123L32.4949 4.78667C32.4827 4.62251 32.4523 4.50851 32.4052 4.44315C32.3581 4.37779 32.311 4.33371 32.2623 4.30939C32.2152 4.28507 32.1696 4.27139 32.1271 4.26835C32.0845 4.26531 32.0617 4.24555 32.0587 4.21211C32.0556 4.17867 32.0617 4.15891 32.0754 4.15435C32.0891 4.14979 32.1088 4.13915 32.1347 4.12395C32.1757 4.12091 32.2243 4.11027 32.2775 4.09203C32.3247 4.07531 32.3779 4.05555 32.4387 4.03275C32.4995 4.01147 32.5663 3.97955 32.6393 3.94003C32.7594 3.87619 32.8475 3.82147 32.9068 3.77587C32.9661 3.73027 33.0102 3.69379 33.0391 3.66795C33.0679 3.64211 33.0877 3.62083 33.0968 3.60715C33.1059 3.59347 33.1242 3.58435 33.1515 3.58283C33.1865 3.57979 33.2063 3.60411 33.2139 3.65579C33.2215 3.70595 33.2291 3.74851 33.2397 3.78195L33.2458 3.99779L33.3263 4.91891L33.3902 5.88259L33.4799 6.91619L33.527 7.49531Z" fill="#4A4545" stroke="#808080" stroke-width="0.5" stroke-miterlimit="10"/>
<path d="M40.1283 7.81299C40.1116 7.97715 40.1207 8.09875 40.1527 8.18235C40.1861 8.26443 40.2226 8.32523 40.2636 8.36323C40.3047 8.40123 40.3442 8.43163 40.3837 8.45291C40.4232 8.47419 40.4415 8.50155 40.4369 8.53499C40.4323 8.58211 40.4019 8.60339 40.3487 8.59883L40.0523 8.56843L39.2255 8.48483L38.9397 8.45595C38.8789 8.44987 38.85 8.42251 38.8546 8.37539C38.8576 8.34195 38.8804 8.31763 38.923 8.30547C38.9655 8.29331 39.0111 8.27203 39.0583 8.24163C39.1054 8.21275 39.154 8.15955 39.2027 8.08659C39.2513 8.01211 39.2847 7.89355 39.2999 7.73091L39.4383 6.36291C39.4747 6.00267 39.4793 5.69411 39.4535 5.44027C39.4276 5.18643 39.3729 4.97819 39.2893 4.81555C39.2057 4.65291 39.0932 4.52979 38.9503 4.44619C38.8075 4.36259 38.6372 4.31091 38.4396 4.29115C38.242 4.27139 38.0672 4.29571 37.9167 4.36259C37.7647 4.42947 37.6325 4.51611 37.5185 4.62251C37.4045 4.72739 37.3103 4.84595 37.2358 4.97515C37.1613 5.10587 37.1051 5.21987 37.0671 5.31867L37.0139 5.84915L36.9105 6.88123L36.8512 7.46339C36.8345 7.62755 36.8436 7.74915 36.8755 7.83275C36.909 7.91483 36.9455 7.97715 36.985 8.01971C37.026 8.06227 37.0655 8.09115 37.1051 8.10939C37.1446 8.12763 37.1628 8.15347 37.1598 8.18691C37.1537 8.24163 37.1203 8.26595 37.0595 8.25987L36.7737 8.23099L35.9559 8.14891L35.6595 8.11851C35.6124 8.11395 35.5866 8.09115 35.5835 8.04859L35.5851 8.02883C35.5851 8.02275 35.5896 8.01515 35.5972 8.00907C35.5972 8.00299 35.6063 7.99235 35.6215 7.98019C35.6367 7.96803 35.6504 7.96043 35.6656 7.95891C35.6793 7.95739 35.6975 7.94979 35.7188 7.93915C35.7401 7.92699 35.7644 7.91483 35.7903 7.89963C35.8161 7.88443 35.8404 7.86467 35.8632 7.84035C35.8708 7.83427 35.8754 7.82971 35.8754 7.82667C35.8754 7.82363 35.8799 7.81907 35.8875 7.81299C35.9027 7.80083 35.9164 7.78259 35.9286 7.75979C35.9407 7.73699 35.9559 7.70963 35.9727 7.67619L35.9772 7.63515C35.9848 7.62299 35.9894 7.60931 35.9909 7.59563C35.9985 7.58347 36.0046 7.56675 36.0061 7.54547C36.0107 7.50443 36.0167 7.47099 36.0259 7.44363L36.0319 7.38283L36.1946 5.76859L36.2903 4.80795L36.3101 4.61339C36.3268 4.44923 36.3177 4.33219 36.2843 4.25923C36.2508 4.18779 36.2128 4.13459 36.1703 4.10267C36.1292 4.07075 36.0882 4.04947 36.0471 4.03883C36.0076 4.02819 35.9894 4.00539 35.9924 3.97195C35.9955 3.93851 36.0046 3.92027 36.0183 3.91723C36.0319 3.91571 36.0532 3.90811 36.0821 3.89747C36.1231 3.90203 36.1718 3.89899 36.2265 3.89139C36.2751 3.88227 36.3314 3.87315 36.3952 3.86251C36.4591 3.85187 36.529 3.83363 36.608 3.80627C36.7357 3.76371 36.833 3.72571 36.8983 3.69075C36.9637 3.65579 37.0123 3.62843 37.0458 3.60715C37.0792 3.58587 37.1005 3.56915 37.1127 3.55699C37.1248 3.54483 37.1431 3.53875 37.1704 3.54179C37.2039 3.54483 37.2206 3.57219 37.2191 3.62387C37.2175 3.67555 37.2175 3.71811 37.2221 3.75307L37.2008 3.96739L37.1081 4.88699L37.1096 4.89763C37.137 4.83835 37.1841 4.76235 37.251 4.66963C37.3194 4.57691 37.4075 4.48571 37.517 4.39755C37.6264 4.30939 37.7587 4.23795 37.9152 4.18475C38.0718 4.13155 38.2527 4.11483 38.4579 4.13611C38.8743 4.17867 39.2057 4.28507 39.455 4.45835C39.7027 4.63163 39.8897 4.83227 40.0143 5.06179C40.139 5.29131 40.215 5.53147 40.2423 5.78075C40.2682 6.03155 40.2727 6.25195 40.253 6.44195C40.2363 6.68059 40.215 6.91467 40.1922 7.14267C40.1724 7.37219 40.1496 7.59563 40.1283 7.81299Z" fill="#4A4545" stroke="#808080" stroke-width="0.5" stroke-miterlimit="10"/>
<path d="M43.6395 5.24872L42.7716 8.4696C42.7291 8.62768 42.7169 8.7508 42.7367 8.83744C42.7564 8.92408 42.7823 8.99096 42.8157 9.0396C42.8491 9.08824 42.8841 9.1232 42.9191 9.14752C42.9555 9.17184 42.9692 9.1992 42.9601 9.23264C42.9571 9.24632 42.9449 9.26456 42.9236 9.28736L42.9008 9.29192C42.8947 9.2904 42.8887 9.2904 42.8841 9.29344C42.8795 9.29648 42.8704 9.29496 42.8583 9.29192C42.7716 9.26912 42.7139 9.24936 42.6819 9.23416C42.6485 9.22504 42.6211 9.21592 42.5983 9.2068C42.5755 9.19768 42.5527 9.18552 42.5284 9.17184C42.4661 9.14144 42.422 9.11864 42.3977 9.10496C42.3734 9.09128 42.3521 9.07912 42.3339 9.06697C42.3156 9.0548 42.3004 9.04416 42.2898 9.03352C42.2442 8.99248 42.2138 8.9636 42.1971 8.94536C42.1651 8.90888 42.1408 8.87696 42.1271 8.85264L42.077 8.76448L42.042 8.6596C42.0329 8.64288 42.0283 8.62464 42.0299 8.60336C42.0314 8.58208 42.0283 8.56384 42.0192 8.54712C42.0162 8.53192 42.0162 8.51368 42.0177 8.49392C42.0192 8.47264 42.0162 8.45136 42.0086 8.42704C42.004 8.39056 42.0055 8.35256 42.0131 8.31152C42.0207 8.27048 42.0253 8.22944 42.0299 8.18841C42.0283 8.13825 42.0344 8.09416 42.0451 8.05464C42.0557 8.01512 42.0648 7.968 42.0724 7.91328L42.1317 7.69592L42.8339 5.08912L42.8476 5.03896L42.4813 4.94016L42.5163 4.81096L42.8826 4.90976L43.4921 2.64952C43.5347 2.49144 43.5468 2.36832 43.5271 2.28168C43.5073 2.19504 43.4815 2.12968 43.4465 2.08408C43.4131 2.04 43.3781 2.00352 43.3431 1.97616C43.3082 1.9488 43.2945 1.9184 43.3036 1.88648C43.3127 1.85304 43.3477 1.83784 43.4115 1.84088C43.445 1.85 43.489 1.85456 43.5453 1.85608C43.5878 1.85304 43.6441 1.85304 43.711 1.85304C43.7779 1.85304 43.8523 1.84696 43.9344 1.83328C44.0742 1.81504 44.1791 1.79224 44.2491 1.76944C44.319 1.74512 44.3722 1.72536 44.4102 1.70712C44.4466 1.68888 44.4725 1.67368 44.4862 1.66304C44.4999 1.6524 44.5166 1.64936 44.5363 1.65544L44.547 1.65848C44.5667 1.66456 44.5789 1.67976 44.5819 1.7056C44.585 1.73144 44.5743 1.79072 44.55 1.88344L44.4938 2.09168L43.676 5.1256L44.4193 5.32624L44.3843 5.45544L43.6395 5.24872Z" fill="#4A4545" stroke="#808080" stroke-width="0.5" stroke-miterlimit="10"/>
<path d="M55.1323 11.1477L53.2079 13.873C53.1137 14.0068 53.0605 14.1177 53.0483 14.2059C53.0362 14.2941 53.0377 14.3655 53.0529 14.4217C53.0681 14.478 53.0879 14.5236 53.1137 14.5585C53.1395 14.5935 53.1426 14.6254 53.1228 14.6528C53.1152 14.6634 53.097 14.6771 53.0711 14.6908C53.0605 14.6832 53.0529 14.6817 53.0483 14.6877C53.0377 14.6801 53.0286 14.6756 53.024 14.6771C53.0195 14.6786 53.0118 14.6741 52.9997 14.6665C52.9723 14.6467 52.9465 14.6285 52.9237 14.6133C52.9009 14.5981 52.8781 14.5768 52.8538 14.5509C52.8203 14.5266 52.7793 14.4901 52.7322 14.44C52.7139 14.4187 52.6972 14.4005 52.682 14.3853C52.6668 14.3701 52.6501 14.3533 52.6319 14.3305C52.6136 14.3093 52.5893 14.2713 52.5604 14.2181C52.5406 14.1877 52.5224 14.1527 52.5057 14.1162C52.5026 14.0965 52.4966 14.0782 52.489 14.06C52.4814 14.0417 52.4753 14.0235 52.4723 14.0037C52.4631 13.9809 52.4601 13.9445 52.4601 13.8958C52.4571 13.8761 52.4555 13.8426 52.457 13.794C52.457 13.7697 52.4601 13.7484 52.4647 13.7301C52.4692 13.7119 52.4722 13.6952 52.4753 13.68C52.4783 13.6405 52.489 13.6009 52.5072 13.5645C52.5361 13.4763 52.568 13.4018 52.6015 13.3425C52.6227 13.3 52.6455 13.2589 52.6683 13.2209C52.6911 13.1829 52.717 13.1434 52.7443 13.1054L52.875 12.9215L54.433 10.716L54.4619 10.6734L54.1519 10.4545L54.2294 10.3451L54.5395 10.564L55.8892 8.65182C55.9865 8.50286 56.0063 8.35238 55.9485 8.20342C55.8907 8.05446 55.7995 7.87662 55.6764 7.67142C55.5913 7.51942 55.5335 7.35223 55.5016 7.17135C55.4697 6.99047 55.4454 6.8035 55.4271 6.60894C55.4089 6.41438 55.3861 6.22135 55.3603 6.02679C55.3344 5.83223 55.2843 5.64526 55.2083 5.46742C55.1368 5.2835 55.0335 5.11327 54.8951 4.95823C54.7583 4.80319 54.6018 4.67398 54.427 4.57062C54.2522 4.46878 54.0652 4.40039 53.8661 4.36847C53.667 4.33655 53.4663 4.35022 53.2657 4.4095C53.0377 4.48246 52.8279 4.58887 52.6349 4.72415C52.4419 4.86095 52.2716 5.02054 52.1211 5.20294C51.9707 5.38534 51.8445 5.58598 51.7411 5.80182C51.6393 6.01766 51.5679 6.24262 51.5299 6.47518C51.4615 6.82022 51.4615 7.1455 51.5283 7.44798C51.5952 7.75046 51.6849 8.01799 51.7989 8.24903C51.9129 8.48007 52.0269 8.66702 52.1424 8.81294C52.2579 8.95734 52.3324 9.04095 52.3659 9.06527C52.5574 9.23399 52.6987 9.39055 52.793 9.53647C52.8872 9.68239 52.9465 9.8207 52.9708 9.95142C52.9951 10.0821 52.9936 10.2007 52.9663 10.3056C52.9374 10.4105 52.8963 10.5032 52.8401 10.5807C52.6227 10.8877 52.3491 10.9257 52.0193 10.6932C51.8901 10.602 51.846 10.526 51.884 10.4667C51.922 10.4059 51.9904 10.3481 52.0892 10.2919C52.188 10.2357 52.299 10.1733 52.4221 10.1049C52.5452 10.0365 52.6258 9.95295 52.6623 9.85415C52.6987 9.75383 52.6729 9.62918 52.5832 9.47718C52.4935 9.32518 52.2914 9.13975 51.9783 8.91783C51.8445 8.82359 51.7107 8.75823 51.58 8.72479C51.4493 8.69135 51.3277 8.68222 51.2152 8.69894C51.1027 8.71566 51.0054 8.75519 50.9264 8.81447C50.8458 8.87527 50.7866 8.9543 50.7501 9.05462C50.7091 9.1595 50.7227 9.29479 50.7911 9.46047C50.8595 9.62615 50.9492 9.80702 51.0617 10.0031C51.1742 10.1992 51.2942 10.4059 51.4219 10.6217C51.5496 10.8376 51.656 11.0549 51.7411 11.2738C51.8247 11.4927 51.8719 11.7085 51.8825 11.9198C51.8916 12.1311 51.8354 12.3241 51.7138 12.4974C51.5283 12.7604 51.2684 12.8805 50.937 12.8592C50.6042 12.8379 50.2287 12.6798 49.8092 12.3834C49.4627 12.1387 49.2103 11.9107 49.0538 11.6994C48.8972 11.4881 48.8015 11.2966 48.768 11.1264C48.7331 10.9561 48.7391 10.8057 48.7832 10.678C48.8273 10.5503 48.879 10.4439 48.9383 10.3603C49.0416 10.2144 49.1678 10.1201 49.3198 10.0776C49.4718 10.0335 49.6146 10.0897 49.7499 10.2433C49.8229 10.3284 49.832 10.4089 49.7758 10.4819C49.7195 10.5549 49.642 10.6293 49.5447 10.7023C49.4475 10.7753 49.3487 10.8573 49.2514 10.9485C49.1541 11.0397 49.0978 11.1446 49.0842 11.2647C49.0705 11.3848 49.1191 11.5277 49.2286 11.6933C49.338 11.859 49.5554 12.0551 49.8791 12.2846C50.0919 12.4351 50.3063 12.5187 50.5236 12.5385C50.741 12.5582 50.9143 12.4746 51.045 12.2907C51.1559 12.1341 51.2 11.97 51.1803 11.7952C51.1605 11.6219 51.1073 11.4425 51.0207 11.2556C50.934 11.0686 50.8291 10.8801 50.706 10.6871C50.5814 10.4956 50.4674 10.3041 50.364 10.1125C50.2607 9.92254 50.1831 9.73406 50.1345 9.54862C50.0859 9.36318 50.0919 9.18382 50.1558 9.01054C50.1953 8.89654 50.2698 8.79166 50.3823 8.69894C50.4932 8.60622 50.63 8.54086 50.7911 8.50286C50.9523 8.46486 51.1286 8.46335 51.3247 8.49527C51.5192 8.52871 51.7244 8.6123 51.9387 8.74606C51.7503 8.47854 51.6043 8.1943 51.501 7.8903C51.3976 7.5863 51.3535 7.26863 51.3703 6.93727C51.3885 6.44782 51.5207 5.98575 51.7655 5.55103C52.0102 5.11631 52.3415 4.77431 52.7595 4.52503C52.8963 4.43687 53.0453 4.36998 53.2034 4.32286C53.3615 4.27574 53.5226 4.25295 53.6852 4.25447C53.8479 4.25599 54.0075 4.28031 54.1655 4.33047C54.3236 4.37911 54.468 4.45359 54.5987 4.55391L54.5927 4.56303C54.6763 4.62231 54.7568 4.68615 54.8359 4.75303C54.9149 4.81991 54.9848 4.89743 55.0487 4.98559C55.2417 5.22271 55.3603 5.46895 55.4043 5.72735C55.4484 5.98575 55.4834 6.23958 55.5062 6.49038C55.5305 6.74118 55.5715 6.98135 55.6339 7.20935C55.6947 7.43735 55.8406 7.64407 56.0686 7.83103C56.1811 7.91007 56.2996 7.96479 56.4288 7.99671C56.5565 8.02863 56.6781 8.04991 56.7936 8.05903C56.9076 8.06815 57.0049 8.07119 57.0824 8.06815C57.1599 8.06511 57.2055 8.06663 57.2162 8.07423C57.239 8.08943 57.2466 8.1107 57.242 8.13654C57.2359 8.16238 57.2055 8.21407 57.1508 8.29159L57.0323 8.45879L55.2143 11.0337L55.8345 11.4714L55.757 11.5809L55.1323 11.1477Z" fill="#4A4545" stroke="#808080" stroke-width="0.5" stroke-miterlimit="10"/>
<path d="M57.5445 19.0914C57.5111 19.1735 57.4943 19.2434 57.4943 19.3027C57.4943 19.3605 57.5019 19.4106 57.5187 19.4501C57.5354 19.4897 57.5293 19.5216 57.5035 19.5429C57.4928 19.552 57.4731 19.5596 57.4427 19.5672L57.4214 19.5581C57.4168 19.5535 57.4123 19.5505 57.4077 19.5489C57.4031 19.5489 57.3955 19.5429 57.3879 19.5322C57.3302 19.4638 57.2937 19.4152 57.2755 19.3848C57.2527 19.3589 57.2359 19.3361 57.2223 19.3149C57.2101 19.2951 57.1964 19.2708 57.1843 19.2465C57.1508 19.1857 57.1265 19.1416 57.1143 19.1173C57.1022 19.0914 57.0915 19.0686 57.0839 19.0489C57.0763 19.0291 57.0703 19.0109 57.0657 18.9972C57.0505 18.9379 57.0429 18.8953 57.0399 18.871C57.0338 18.8224 57.0323 18.7829 57.0353 18.754L57.0429 18.6521L57.0733 18.5457C57.0748 18.526 57.0809 18.5093 57.0915 18.4956C57.1022 18.4819 57.1113 18.4637 57.1174 18.4393C57.1235 18.4257 57.1326 18.4105 57.1463 18.3937C57.1599 18.3785 57.1675 18.3603 57.1691 18.3405C57.1919 18.3041 57.2177 18.2706 57.2466 18.2417C57.2755 18.2129 57.3043 18.1825 57.3302 18.1505C57.3363 18.1369 57.3499 18.1201 57.3697 18.1034C57.3347 18.1156 57.2633 18.1353 57.1539 18.1657C57.0444 18.1961 56.9152 18.2083 56.7678 18.2037C56.6203 18.1992 56.4638 18.1627 56.2996 18.0958C56.1355 18.0289 55.9774 17.9073 55.8269 17.7295C55.5518 17.4057 55.3861 17.0972 55.3299 16.8038C55.2736 16.5105 55.2797 16.2384 55.3496 15.9861C55.418 15.7337 55.529 15.5103 55.681 15.3142C55.833 15.1181 55.985 14.9555 56.1355 14.8263C56.3133 14.6667 56.4896 14.5117 56.6644 14.3627C56.8392 14.2137 57.0079 14.0709 57.1691 13.9341C57.2937 13.8277 57.3727 13.7334 57.4062 13.6513C57.4396 13.5693 57.4563 13.4993 57.4563 13.4401C57.4563 13.3823 57.4487 13.3321 57.432 13.2926C57.4153 13.2531 57.4214 13.2212 57.4472 13.1999C57.4883 13.1649 57.5278 13.168 57.5627 13.209L57.7558 13.4355L58.2878 14.0617L58.4808 14.2882C58.5158 14.3293 58.5127 14.3688 58.4717 14.4037C58.4459 14.4265 58.4139 14.4265 58.3775 14.4037C58.341 14.3809 58.2939 14.3657 58.2361 14.3551C58.1783 14.346 58.1069 14.3505 58.0203 14.3703C57.9336 14.3901 57.8272 14.4524 57.7026 14.5588L56.6614 15.4419C56.3847 15.6775 56.1674 15.8949 56.0108 16.0955C55.8543 16.2961 55.7479 16.4846 55.6947 16.6594C55.6415 16.8342 55.6369 17.0014 55.6825 17.161C55.7281 17.3206 55.8147 17.4757 55.9439 17.6261C56.0716 17.7781 56.216 17.883 56.3741 17.9423C56.5322 18.0016 56.6872 18.0305 56.8407 18.0305C56.9927 18.0305 57.1417 18.0107 57.2861 17.9681C57.4305 17.9271 57.5506 17.883 57.6463 17.8374L57.6935 17.7979L58.2726 17.3054L58.4763 17.1321L59.2119 16.5074L59.9157 15.9085L60.0799 15.7687C60.1103 15.752 60.1467 15.7277 60.1878 15.6973C60.2288 15.6669 60.2607 15.6638 60.2835 15.6912C60.2972 15.7064 60.3018 15.7246 60.3018 15.7429C60.3003 15.7626 60.2987 15.79 60.2987 15.8265C60.2987 15.8629 60.3033 15.9192 60.3139 15.9952C60.3246 16.0712 60.3489 16.1745 60.3869 16.3037C60.4097 16.3828 60.434 16.4527 60.4614 16.5105C60.4887 16.5682 60.5115 16.6199 60.5328 16.6655C60.5571 16.7157 60.583 16.7567 60.6103 16.7886C60.6179 16.819 60.624 16.8388 60.6301 16.8525C60.6362 16.8646 60.6271 16.8829 60.5997 16.9041C60.5739 16.9269 60.545 16.9239 60.5131 16.8965C60.4811 16.8692 60.4401 16.8479 60.3915 16.8327C60.3413 16.816 60.2775 16.8145 60.1984 16.8281C60.1194 16.8418 60.0175 16.9011 59.8929 17.0075L59.7439 17.1337L59.0083 17.7584L58.8046 17.9317L57.7801 18.8026C57.657 18.9151 57.5779 19.0093 57.5445 19.0914Z" fill="#4A4545" stroke="#808080" stroke-width="0.5" stroke-miterlimit="10"/>
<path d="M60.4735 24.2593C60.4234 24.3323 60.3915 24.3977 60.3778 24.4539C60.3656 24.5101 60.3626 24.5603 60.3687 24.6029C60.3747 24.6454 60.3641 24.6743 60.3337 24.691C60.3094 24.7032 60.2896 24.7108 60.2744 24.7108C60.2683 24.6986 60.2607 24.691 60.2516 24.688C60.2486 24.6819 60.244 24.6789 60.2395 24.6773C60.2349 24.6758 60.2288 24.6697 60.2227 24.6576C60.2075 24.6272 60.1923 24.5998 60.1802 24.5755C60.168 24.5512 60.1559 24.5223 60.1467 24.4889C60.1315 24.4585 60.1194 24.4326 60.1103 24.4098C60.1027 24.387 60.0951 24.3612 60.089 24.3338C60.0692 24.2669 60.0555 24.2198 60.0495 24.1925C60.0464 24.1712 60.0419 24.1499 60.0388 24.1286C60.0358 24.1073 60.0312 24.0861 60.0282 24.0648C60.0282 24.0344 60.0297 23.9949 60.0358 23.9447C60.0312 23.893 60.0388 23.855 60.0571 23.8292C60.0631 23.8109 60.0692 23.7927 60.0738 23.7745C60.0799 23.7562 60.0859 23.738 60.0905 23.7197C60.0966 23.7015 60.1103 23.6696 60.1346 23.627C60.1437 23.6149 60.1559 23.6012 60.1711 23.5845C60.1863 23.5693 60.1984 23.5556 60.2075 23.5419C60.2197 23.5206 60.2455 23.4902 60.2881 23.4537C60.3535 23.3884 60.4158 23.3367 60.4735 23.2987C60.5131 23.2698 60.5495 23.2455 60.5845 23.2227C60.6195 23.1999 60.6605 23.1771 60.7091 23.1513C60.7365 23.13 60.7669 23.1102 60.8003 23.092C60.8338 23.0753 60.8687 23.057 60.9052 23.0373L62.0878 22.4186C62.1425 22.3897 62.2276 22.3198 62.3431 22.2104C62.4587 22.0994 62.5651 21.9626 62.6623 21.8C62.7581 21.6373 62.8219 21.4549 62.8493 21.2497C62.8782 21.0461 62.8356 20.8348 62.7201 20.6159C62.6274 20.4396 62.5179 20.3028 62.3887 20.204C62.2595 20.1052 62.1045 20.0474 61.9221 20.0307C61.7397 20.014 61.5254 20.0413 61.2807 20.1113C61.0359 20.1812 60.7517 20.3013 60.431 20.4685C60.1087 20.6372 59.8503 20.8013 59.6527 20.9625C59.4551 21.1236 59.3107 21.2832 59.2211 21.4428C59.1299 21.6024 59.0888 21.762 59.0964 21.9246C59.104 22.0873 59.1542 22.256 59.2454 22.4323C59.3503 22.6329 59.481 22.7697 59.6406 22.8457C59.7987 22.9202 59.9613 22.9613 60.127 22.9673C60.2927 22.9734 60.4447 22.9582 60.583 22.9202C60.7213 22.8822 60.8216 22.8473 60.8824 22.8153C61.0405 22.7333 61.1484 22.6527 61.2092 22.5752C61.2685 22.4977 61.3019 22.4232 61.3065 22.3502C61.3111 22.2788 61.2959 22.2089 61.2609 22.142C61.2259 22.0751 61.1925 22.0158 61.1606 21.9626C61.1287 21.9094 61.1089 21.8623 61.0983 21.8213C61.0891 21.7802 61.1104 21.7453 61.1651 21.7164C61.2624 21.6662 61.3536 21.6586 61.4372 21.6951C61.5223 21.7316 61.5619 21.8258 61.5543 21.9748C61.5451 22.1192 61.498 22.2803 61.4144 22.4597C61.3308 22.639 61.1697 22.7895 60.9341 22.9141C60.8672 22.9491 60.7578 22.9901 60.6058 23.0388C60.4538 23.0874 60.2866 23.1117 60.1042 23.1102C59.9218 23.1087 59.7409 23.0661 59.5631 22.9825C59.3837 22.8989 59.2332 22.7378 59.1086 22.5022C58.9125 22.1268 58.8183 21.7893 58.8289 21.4899C58.838 21.192 58.9049 20.9275 59.028 20.6965C59.1511 20.4654 59.3092 20.2709 59.5038 20.1113C59.6983 19.9517 59.8807 19.827 60.051 19.7389C60.2212 19.6507 60.4264 19.5717 60.6681 19.5033C60.9098 19.4349 61.1606 19.4151 61.4205 19.4455C61.6804 19.4759 61.9343 19.5717 62.1851 19.7343C62.4359 19.8969 62.6593 20.166 62.8569 20.5414C62.9739 20.7664 63.0256 20.9792 63.0104 21.1798C62.9952 21.3805 62.9557 21.5522 62.8903 21.6936C62.8174 21.8638 62.7125 22.0189 62.5772 22.1587L63.2962 21.7833L66.2435 20.242L66.435 20.1417C66.514 20.1006 66.5672 20.0778 66.5961 20.0748C66.625 20.0717 66.6463 20.0809 66.6584 20.1052C66.6706 20.1295 66.6736 20.1493 66.666 20.1645C66.6584 20.1797 66.6493 20.207 66.6402 20.2481C66.6295 20.2876 66.6219 20.3453 66.6128 20.4183C66.6037 20.4913 66.6052 20.5961 66.6143 20.7299C66.6189 20.812 66.628 20.8849 66.6417 20.9473C66.6554 21.0096 66.666 21.0658 66.6767 21.1145C66.6903 21.1692 66.7055 21.2148 66.7253 21.2513C66.739 21.306 66.7299 21.3409 66.6995 21.3577C66.6691 21.3729 66.6371 21.3668 66.6022 21.3394C66.5687 21.3105 66.5262 21.2847 66.4745 21.2619C66.4228 21.2376 66.3544 21.2269 66.2647 21.2269C66.1751 21.2269 66.0595 21.2649 65.9136 21.3409L60.7639 24.0329C60.6225 24.1119 60.5237 24.1864 60.4735 24.2593Z" fill="#4A4545" stroke="#808080" stroke-width="0.5" stroke-miterlimit="10"/>
<path d="M61.8704 27.2022C61.7138 27.2524 61.6044 27.3086 61.5421 27.3709C61.4798 27.4332 61.4372 27.4925 61.4144 27.5457C61.3916 27.5989 61.381 27.6476 61.3794 27.6916C61.3794 27.7357 61.3627 27.7616 61.3293 27.7722C61.2776 27.7889 61.2426 27.7707 61.2259 27.719L61.1363 27.4348L60.887 26.652L60.7973 26.3677C60.7821 26.3221 60.7942 26.2902 60.8307 26.2704L60.8505 26.2644C60.8566 26.2628 60.8642 26.2628 60.8733 26.2674C60.8794 26.2659 60.8915 26.2689 60.9083 26.278C60.925 26.2872 60.9371 26.2978 60.9447 26.31C60.9523 26.3221 60.966 26.3358 60.9843 26.351C61.004 26.3662 61.0253 26.3829 61.0481 26.4012C61.0709 26.4194 61.0998 26.4331 61.1317 26.4452C61.1408 26.4498 61.1454 26.4513 61.1499 26.4498C61.153 26.4483 61.159 26.4498 61.1682 26.4544C61.194 26.468 61.2472 26.4756 61.3263 26.4787C61.346 26.4726 61.3597 26.4711 61.3688 26.4756L61.4083 26.4635C61.4235 26.4665 61.4403 26.4635 61.46 26.4574C61.4722 26.4528 61.4889 26.4498 61.5056 26.4483C61.5223 26.4468 61.5421 26.4422 61.5603 26.4361L61.6196 26.4179L63.1654 25.9269L64.085 25.6351L64.2705 25.5758C64.4271 25.5256 64.5319 25.4709 64.5836 25.4101C64.6353 25.3493 64.6687 25.2931 64.6809 25.2414C64.6931 25.1897 64.6961 25.1426 64.69 25.1C64.6839 25.0575 64.6961 25.0316 64.7295 25.021C64.7615 25.0104 64.7827 25.0119 64.7903 25.024C64.7979 25.0362 64.8116 25.0529 64.8329 25.0757C64.8451 25.1152 64.8663 25.1593 64.8967 25.208C64.9241 25.2505 64.956 25.2976 64.991 25.3524C65.0259 25.4071 65.0715 25.4648 65.1278 25.5272C65.2175 25.629 65.2919 25.7035 65.3497 25.7506C65.4074 25.7977 65.453 25.8312 65.485 25.854C65.5169 25.8768 65.5412 25.8904 65.5579 25.8965C65.5746 25.9026 65.5868 25.9178 65.5944 25.9452C65.605 25.9786 65.5868 26.0044 65.5382 26.0227C65.491 26.0409 65.4515 26.0592 65.4211 26.0759L65.2129 26.1321L64.3358 26.4224L63.4132 26.7052L62.4283 27.0289L61.8704 27.2022ZM66.8043 25.0028C66.7542 24.8447 66.7663 24.6927 66.8423 24.5452C66.9183 24.3978 67.0338 24.3005 67.1904 24.2504C67.347 24.2002 67.499 24.2139 67.6449 24.2899C67.7908 24.3659 67.8896 24.4844 67.9398 24.641C67.9899 24.7991 67.9778 24.9511 67.9018 25.0985C67.8258 25.246 67.7102 25.3448 67.5537 25.3934C67.3971 25.4436 67.2451 25.4299 67.0992 25.3524C66.9533 25.2779 66.8545 25.1608 66.8043 25.0028Z" fill="#4A4545" stroke="#808080" stroke-width="0.5" stroke-miterlimit="10"/>
<path d="M66.134 30.4168C66.1857 30.7481 66.1629 31.0445 66.0687 31.3045C65.9744 31.5644 65.8361 31.7848 65.6567 31.9657C65.4774 32.145 65.2691 32.2909 65.0335 32.4004C64.7979 32.5098 64.5654 32.5813 64.3343 32.6177C64.0972 32.6542 63.8495 32.6557 63.5926 32.6238C63.3342 32.5904 63.0925 32.5159 62.8675 32.3989C62.6411 32.2818 62.4435 32.1131 62.2747 31.8927C62.106 31.6723 61.9951 31.3972 61.9449 31.0658C61.8932 30.7269 61.9145 30.4305 62.0087 30.1736C62.1045 29.9167 62.2413 29.6978 62.4222 29.5169C62.6015 29.3361 62.8098 29.1917 63.0454 29.0822C63.281 28.9728 63.5181 28.8998 63.7537 28.8633C63.9832 28.8284 64.2279 28.8269 64.4848 28.8588C64.7432 28.8922 64.9849 28.9667 65.2099 29.0837C65.4363 29.2008 65.6324 29.368 65.8011 29.5838C65.9714 29.8012 66.0823 30.0778 66.134 30.4168ZM62.0969 31.0415C62.1197 31.1905 62.1744 31.3242 62.2626 31.4413C62.3492 31.5598 62.4784 31.6556 62.6502 31.7301C62.8204 31.8045 63.0332 31.8486 63.2886 31.8653C63.5439 31.8805 63.851 31.8623 64.2097 31.8061C64.5608 31.7513 64.8557 31.6784 65.0943 31.5857C65.333 31.4929 65.523 31.3866 65.6628 31.2634C65.8027 31.1418 65.8969 31.0111 65.9455 30.8713C65.9927 30.7329 66.0063 30.5885 65.982 30.4396C65.9592 30.2906 65.903 30.1569 65.8163 30.0398C65.7282 29.9213 65.6005 29.8255 65.4287 29.751C65.2585 29.6765 65.0442 29.6325 64.7903 29.6157C64.535 29.599 64.231 29.6188 63.8799 29.6735C63.5211 29.7282 63.2232 29.8027 62.9846 29.8954C62.7459 29.9882 62.5559 30.0945 62.4161 30.2177C62.2763 30.3393 62.182 30.47 62.1334 30.6098C62.0863 30.7481 62.0741 30.8925 62.0969 31.0415Z" fill="#4A4545" stroke="#808080" stroke-width="0.5" stroke-miterlimit="10"/>
<path d="M41.3474 50.5231H40.5904V48.7416H27.941V47.9847H30.525V22.5976C30.525 21.7069 30.2575 21.1278 29.7239 20.8603C29.3683 20.7113 28.6843 20.6368 27.675 20.6368V19.8799H35.3799V20.6368H32.8855V47.9847H33.1971C36.2858 47.9847 38.3636 47.4496 39.4322 46.3811C40.2925 45.5208 40.7242 43.9612 40.7242 41.704C40.7242 41.2298 40.7014 40.3984 40.6573 39.2097C40.6132 38.0226 40.5904 37.0711 40.5904 36.3597H41.3474V50.5231Z" fill="#4A4545"/>
<path d="M47.2343 28.801C47.2343 30.5916 46.5367 32.1693 45.1428 33.5358C43.7475 34.9023 42.156 35.5848 40.3655 35.5848C39.0081 35.5848 37.783 35.1318 36.6901 34.2274V41.1525C36.6901 41.718 36.8315 42.0858 37.1142 42.2545C37.3209 42.3868 37.7267 42.443 38.3302 42.4248V42.9051H34.1471V42.4248H35.4194V25.0816L34.4299 26.3143L34.0635 26.0042L37.0321 22.4429L37.3984 22.7529L36.6916 23.6011L36.6931 24.8733C38.163 23.592 39.7073 22.9506 41.3291 22.9506C42.9312 22.9506 44.3159 23.5251 45.4848 24.6742C46.6507 25.8233 47.2343 27.1989 47.2343 28.801ZM46.2175 29.5063C46.2175 28.0258 45.6931 26.7141 44.6443 25.5695C43.5955 24.4265 42.3339 23.8534 40.8595 23.8534C39.1966 23.8534 37.8073 24.4903 36.6916 25.7656V32.373C37.8818 33.9097 39.3471 34.6789 41.0859 34.6789C42.5041 34.6789 43.7125 34.1681 44.7142 33.1467C45.7159 32.1268 46.2175 30.9123 46.2175 29.5063Z" fill="#4A4545"/>
<path d="M63.7734 35.1087C63.7734 35.1467 63.775 35.1847 63.775 35.2227C63.775 50.9167 51.007 63.6847 35.313 63.6847C19.6189 63.6847 6.85095 50.9167 6.85095 35.2227C6.85095 34.7257 6.86463 34.2317 6.88895 33.7407H5.67143C5.64711 34.2317 5.63495 34.7257 5.63495 35.2227C5.63495 51.587 18.9486 64.9007 35.313 64.9007C51.6773 64.9007 64.991 51.587 64.991 35.2227C64.991 35.1847 64.9894 35.1467 64.9894 35.1087H63.7734Z" fill="#4A4545"/>
</svg>
